<?xml version="1.0" standalone="no"?>
<!DOCTYPE svg PUBLIC "-//W3C//DTD SVG 20010904//EN"
 "http://www.w3.org/TR/2001/REC-SVG-20010904/DTD/svg10.dtd">
<svg version="1.0" xmlns="http://www.w3.org/2000/svg"
 width="512.000000pt" height="512.000000pt" viewBox="0 0 512.000000 512.000000"
 preserveAspectRatio="xMidYMid meet">
<metadata>
Created by potrace 1.14, written by Peter Selinger 2001-2017
</metadata>
<g transform="translate(0.000000,512.000000) scale(0.100000,-0.100000)"
fill="#000000" stroke="none">
<path d="M506 5085 c-6 -31 -2 -43 30 -88 21 -29 38 -53 38 -53 1 -1 16 -5 34
-9 l32 -7 0 43 c0 59 -61 149 -101 149 -23 0 -28 -5 -33 -35z"/>
<path d="M777 5113 c-21 -21 3 -66 124 -230 178 -244 176 -241 114 -123 -185
353 -190 360 -211 360 -11 0 -24 -3 -27 -7z"/>
<path d="M1011 5043 c23 -43 46 -82 51 -87 4 -6 8 22 8 61 0 39 3 78 6 87 5
13 -3 16 -50 16 l-57 0 42 -77z"/>
<path d="M1327 4940 c58 -100 107 -179 109 -178 1 2 -26 75 -60 163 -35 88
-66 168 -69 178 -5 12 -17 17 -46 17 l-39 0 105 -180z"/>
<path d="M1440 5113 c0 -5 29 -81 64 -171 l63 -164 31 56 c18 30 40 60 49 65
45 26 45 24 -2 124 l-45 97 -80 0 c-44 0 -80 -3 -80 -7z"/>
<path d="M1835 5098 c3 -13 11 -52 19 -88 l13 -65 16 36 c9 20 19 59 23 87 l7
52 -42 0 c-38 0 -41 -2 -36 -22z"/>
<path d="M2022 5043 c-6 -43 -23 -99 -36 -125 l-24 -46 33 -6 c32 -6 79 -49
132 -122 l21 -29 26 25 25 25 -6 178 -6 177 -76 0 -76 0 -13 -77z"/>
<path d="M2429 5078 c-3 -32 10 -85 52 -208 l56 -165 11 50 c6 28 22 113 37
190 14 77 28 148 31 158 5 15 -4 17 -89 17 l-95 0 -3 -42z"/>
<path d="M2668 4787 c-37 -184 -65 -343 -62 -357 4 -14 23 -79 44 -145 21 -66
42 -137 45 -157 4 -21 9 -38 11 -38 2 0 14 11 28 25 69 69 124 -5 171 -225 8
-36 26 -106 40 -155 21 -69 28 -116 30 -205 3 -108 4 -115 24 -118 12 -2 28
-14 37 -27 14 -22 13 -34 -17 -157 -87 -365 -139 -483 -270 -619 -49 -51 -89
-97 -89 -102 0 -4 -14 -44 -32 -88 -59 -149 -110 -163 -281 -74 -86 45 -114
55 -154 55 -85 0 -82 -9 37 -109 61 -52 119 -105 130 -119 32 -40 26 -74 -20
-116 -45 -40 -69 -44 -143 -21 -43 13 -52 13 -77 0 -41 -21 -71 -19 -305 20
-115 19 -210 33 -212 31 -2 -2 8 -27 22 -57 25 -54 32 -122 16 -148 -6 -9 1
-29 20 -59 16 -25 32 -62 35 -81 4 -20 17 -49 30 -64 17 -20 24 -41 24 -69 0
-25 8 -49 21 -66 16 -20 20 -38 18 -79 -2 -41 2 -58 18 -75 50 -55 56 -152 17
-284 -14 -48 -23 -98 -20 -110 12 -45 153 -67 321 -49 74 7 84 11 130 50 50
41 151 116 228 168 35 24 50 28 92 25 32 -3 62 -13 81 -27 19 -14 49 -23 83
-26 77 -7 136 -50 215 -156 18 -25 44 -43 83 -58 31 -12 58 -19 61 -17 12 13
52 146 62 209 19 121 63 171 155 174 67 1 105 10 163 35 37 17 58 19 109 15
49 -5 63 -3 63 7 0 8 6 19 14 25 19 16 10 46 -17 58 -12 6 -46 29 -74 52 -70
55 -70 91 0 91 13 0 -14 18 -63 43 -122 61 -133 95 -30 98 l45 1 -35 14 c-61
25 -85 42 -85 61 0 13 10 20 35 24 l35 5 -30 8 c-143 36 -163 48 -130 73 11 7
29 13 42 13 16 0 27 8 33 24 10 29 64 72 108 87 19 6 43 28 60 52 15 23 66 70
112 105 47 35 85 71 85 80 0 24 -53 31 -132 16 -62 -11 -128 -18 -160 -15 -25
2 -12 28 34 69 25 23 48 42 50 42 3 0 18 9 33 20 16 12 35 17 45 14 13 -5 9
-10 -18 -19 -38 -13 -132 -82 -141 -102 -12 -30 200 -3 222 28 7 10 37 32 68
50 42 24 53 34 42 41 -9 7 -8 8 6 4 12 -4 79 23 195 80 192 95 259 126 521
246 96 44 189 86 205 93 17 8 66 30 110 49 44 20 70 36 58 36 -26 0 -35 12
-27 34 7 19 232 191 240 183 3 -2 -39 -36 -93 -75 -54 -38 -109 -81 -122 -96
-22 -24 -23 -26 -6 -32 24 -10 84 7 168 46 l67 32 -1 85 c-1 81 -2 84 -23 79
-11 -2 -39 -7 -61 -10 -23 -3 -14 1 23 10 61 15 62 16 62 50 0 25 -4 34 -16
34 -15 0 -15 2 0 26 10 14 16 36 14 49 -3 24 -9 21 -163 -70 -88 -51 -161 -99
-163 -104 -2 -6 -11 -11 -19 -11 -16 0 -87 -40 -81 -45 2 -2 39 3 82 11 43 8
80 13 83 11 4 -5 -159 -37 -185 -37 -30 0 -755 -454 -782 -490 -10 -13 -261
-182 -265 -178 -3 2 53 44 123 92 70 48 168 117 217 152 87 63 282 187 549
349 72 44 123 81 115 83 -14 5 -29 22 -29 34 0 3 21 34 46 67 51 68 253 257
426 398 l47 38 0 245 1 244 -52 -49 -53 -50 53 55 52 56 0 497 0 497 -1193 0
-1192 0 -67 -333z m2286 -854 c-36 -43 -79 -91 -94 -108 -42 -47 -154 -195
-184 -245 -16 -25 -26 -37 -23 -28 15 45 124 191 265 352 51 58 95 106 98 106
2 0 -25 -35 -62 -77z m-19 -311 c-81 -72 -107 -94 -95 -78 8 11 14 21 13 23
-2 1 -1 3 2 4 2 0 18 13 36 30 17 16 36 29 42 29 7 0 7 -3 2 -8z m-114 -75
c-6 -8 -9 -16 -6 -18 6 -7 -21 -32 -215 -198 -216 -184 -250 -218 -230 -231
13 -8 12 -10 -2 -10 -10 0 -18 6 -18 14 0 17 104 116 267 255 68 58 121 107
118 110 -6 5 -37 -16 -125 -85 -66 -52 -499 -388 -627 -487 -58 -45 -88 -74
-80 -79 6 -4 15 -2 19 5 4 6 10 9 13 6 3 -4 -20 -27 -52 -53 -50 -41 -52 -42
-14 -7 45 42 45 51 1 26 -108 -62 68 82 605 495 110 84 217 167 238 183 25 20
35 23 30 12 -5 -14 -3 -16 13 -7 23 12 61 52 49 52 -4 0 -2 7 5 15 7 8 15 15
17 15 3 0 0 -6 -6 -13z m179 -2 c0 -6 -32 -19 -70 -29 -14 -3 -7 3 15 13 42
21 55 24 55 16z m-641 -18 c-2 -1 -13 -9 -24 -17 -19 -14 -19 -14 -6 3 7 9 18
17 24 17 6 0 8 -1 6 -3z m431 -1 c0 -2 -8 -10 -17 -17 -16 -13 -17 -12 -4 4
13 16 21 21 21 13z m-116 -55 c-2 -3 -12 3 -22 13 -16 17 -16 18 5 5 12 -7 20
-15 17 -18z m173 23 c-3 -3 -12 -4 -19 -1 -8 3 -5 6 6 6 11 1 17 -2 13 -5z
m-687 -147 c0 -2 -12 -14 -27 -28 l-28 -24 24 28 c23 25 31 32 31 24z m860
-127 c-8 -5 -19 -10 -25 -10 -5 0 -3 5 5 10 8 5 20 10 25 10 6 0 3 -5 -5 -10z
m-110 -40 c-8 -5 -19 -10 -25 -10 -5 0 -3 5 5 10 8 5 20 10 25 10 6 0 3 -5 -5
-10z m-55 -20 c-11 -5 -27 -9 -35 -9 -9 0 -8 4 5 9 11 5 27 9 35 9 9 0 8 -4
-5 -9z m135 -8 c0 -10 -109 -37 -116 -29 -3 2 21 11 53 19 32 9 59 16 61 17 1
0 2 -3 2 -7z m-462 -29 c-16 -2 -40 -2 -55 0 -16 2 -3 4 27 4 30 0 43 -2 28
-4z m-568 -26 c0 -2 -15 -16 -32 -33 l-33 -29 29 33 c28 30 36 37 36 29z m-60
-21 c0 -2 -7 -7 -16 -10 -8 -3 -12 -2 -9 4 6 10 25 14 25 6z m-20 -69 c0 -2
-10 -12 -22 -23 l-23 -19 19 23 c18 21 26 27 26 19z m-60 -282 c0 -4 -201
-170 -284 -234 -43 -33 -166 -154 -166 -162 0 -4 8 -10 18 -12 13 -4 11 -5 -5
-6 -39 -2 -26 26 45 94 52 50 378 321 390 324 1 1 2 -1 2 -4z m-92 -312 c-10
-2 -26 -2 -35 0 -10 3 -2 5 17 5 19 0 27 -2 18 -5z m49 1 c-3 -3 -12 -4 -19
-1 -8 3 -5 6 6 6 11 1 17 -2 13 -5z"/>
<path d="M17 5059 c-11 -20 -17 -51 -17 -87 1 -55 3 -59 52 -112 48 -51 51
-53 44 -25 -4 17 -10 73 -13 125 -3 65 -10 101 -21 113 -20 23 -24 22 -45 -14z"/>
<path d="M318 5026 c-5 -49 17 -70 27 -25 5 22 3 36 -8 46 -13 13 -15 11 -19
-21z"/>
<path d="M1190 4817 l0 -109 115 -218 c63 -119 115 -222 115 -229 0 -6 5 -11
10 -11 6 0 10 11 10 25 0 13 7 57 16 97 l16 73 -129 220 c-71 121 -135 229
-141 240 -9 16 -11 -2 -12 -88z"/>
<path d="M446 4865 c-9 -24 5 -41 16 -20 7 11 7 20 0 27 -6 6 -12 3 -16 -7z"/>
<path d="M1887 4834 c-3 -4 -41 -10 -83 -14 -92 -9 -99 -16 -139 -132 -31 -88
-31 -84 20 -228 20 -58 38 -124 38 -146 2 -36 7 -45 47 -76 l45 -34 0 115 c0
132 11 175 58 223 l32 33 0 132 c0 125 -2 142 -18 127z"/>
<path d="M2347 4775 c-33 -68 -34 -104 -3 -186 13 -35 32 -100 42 -144 9 -44
21 -84 24 -88 4 -5 10 15 14 43 5 34 15 60 30 75 l22 22 -22 84 c-13 46 -36
121 -51 167 l-28 83 -28 -56z"/>
<path d="M277 4813 c-15 -25 -18 -76 -6 -84 32 -20 45 -10 41 31 -4 37 -25 70
-35 53z"/>
<path d="M2024 4649 c3 -17 6 -39 6 -47 0 -13 4 -11 15 6 14 19 14 24 -1 47
-22 33 -28 32 -20 -6z"/>
<path d="M470 4601 c0 -6 4 -13 10 -16 6 -3 7 1 4 9 -7 18 -14 21 -14 7z"/>
<path d="M840 4588 c0 -13 231 -351 261 -382 5 -6 9 2 9 21 0 24 -28 67 -131
199 -72 93 -133 171 -135 173 -2 2 -4 -3 -4 -11z"/>
<path d="M0 4493 l1 -68 24 45 c30 56 30 54 0 74 l-25 16 0 -67z"/>
<path d="M336 4547 c3 -10 9 -15 12 -12 3 3 0 11 -7 18 -10 9 -11 8 -5 -6z"/>
<path d="M85 4334 c-36 -55 -36 -55 -17 -81 14 -19 40 -32 96 -48 42 -12 75
-19 74 -16 -15 31 -111 201 -114 201 -2 0 -19 -25 -39 -56z"/>
<path d="M656 4153 l86 -178 95 -63 c53 -34 98 -60 101 -58 7 8 -26 85 -66
151 -30 50 -269 313 -293 323 -5 2 30 -77 77 -175z"/>
<path d="M1551 4228 c-7 -45 -16 -127 -21 -182 l-8 -101 61 -62 c33 -34 62
-61 64 -59 2 2 -10 46 -26 97 -64 199 -71 280 -28 327 14 15 13 19 -3 40 -10
12 -20 22 -22 22 -3 0 -10 -37 -17 -82z"/>
<path d="M2230 4192 l5 -57 3 49 c2 27 0 52 -5 57 -4 4 -6 -18 -3 -49z"/>
<path d="M2527 4188 c-3 -10 -9 -41 -12 -70 -3 -29 -10 -80 -16 -113 -10 -60
-1 -125 62 -432 l10 -53 29 22 c16 11 36 18 44 15 12 -5 16 0 16 20 0 60 -32
280 -44 309 -13 27 -49 166 -73 279 -6 29 -11 35 -16 23z"/>
<path d="M430 4175 c0 -3 16 -36 34 -74 25 -49 42 -70 58 -73 13 -3 31 -9 41
-13 36 -15 -18 66 -77 118 -31 27 -56 46 -56 42z"/>
<path d="M1685 4118 c4 -18 16 -62 27 -98 l20 -65 20 65 20 64 -36 33 c-46 42
-60 43 -51 1z"/>
<path d="M1974 4098 c3 -18 10 -67 15 -108 10 -75 34 -140 52 -140 11 0 12
-12 -11 113 -17 95 -41 167 -56 167 -3 0 -3 -15 0 -32z"/>
<path d="M220 4055 c0 -3 19 -31 42 -61 l41 -55 12 28 c7 15 10 31 8 36 -6 10
-103 59 -103 52z"/>
<path d="M1250 4027 c0 -27 14 -55 56 -116 30 -45 57 -81 59 -81 2 0 -2 18
-10 41 -8 22 -14 43 -14 47 3 19 -5 33 -46 86 l-45 58 0 -35z"/>
<path d="M0 3930 c0 -37 6 -52 30 -80 36 -40 35 -29 -5 67 l-24 58 -1 -45z"/>
<path d="M1847 3925 c-17 -44 -3 -85 29 -85 9 0 2 57 -10 79 -11 20 -14 21
-19 6z"/>
<path d="M2326 3901 c-21 -17 -47 -31 -58 -31 -10 0 -37 -9 -59 -21 -30 -15
-39 -25 -34 -37 3 -9 9 -60 12 -113 6 -95 5 -98 -20 -123 -14 -14 -35 -26 -47
-26 -11 0 -20 -3 -20 -8 0 -45 -25 -185 -41 -227 -21 -56 -71 -110 -113 -121
-20 -5 -24 -13 -29 -63 -11 -124 -73 -185 -187 -185 -62 0 -67 -2 -85 -30 -28
-42 -90 -74 -161 -82 -44 -5 -65 -13 -82 -31 l-23 -25 28 -75 c39 -104 85
-143 276 -227 80 -36 164 -74 186 -86 22 -11 42 -20 44 -20 2 0 1 19 -3 42 -5
23 -5 79 0 126 9 104 39 154 115 192 45 23 61 25 165 24 135 -1 166 -10 275
-84 42 -27 79 -50 84 -50 11 0 19 66 27 235 6 130 5 142 -14 175 -23 38 -65
229 -137 615 -25 138 -49 258 -53 268 -7 17 -11 16 -46 -12z"/>
<path d="M2759 3896 c-14 -28 -14 -42 2 -166 10 -74 19 -152 19 -172 0 -38 0
-38 40 -38 l40 0 0 48 c0 26 -7 72 -15 102 -8 30 -26 99 -40 154 -13 54 -26
100 -27 101 -2 2 -10 -11 -19 -29z"/>
<path d="M150 3909 c0 -9 68 -166 98 -226 27 -53 108 -140 120 -129 2 3 -4 29
-13 58 -11 33 -49 96 -103 168 -89 120 -102 137 -102 129z"/>
<path d="M413 3844 c5 -52 13 -65 123 -209 64 -85 121 -158 128 -163 11 -9 56
-23 56 -17 0 1 -48 70 -106 151 -58 82 -126 182 -151 222 -25 39 -47 72 -50
72 -3 0 -3 -25 0 -56z"/>
<path d="M1122 3725 c2 -21 9 -40 16 -43 18 -6 15 53 -4 69 -14 11 -15 8 -12
-26z"/>
<path d="M691 3745 c0 -5 11 -23 24 -40 14 -16 25 -25 25 -18 0 7 -11 25 -25
40 -13 15 -24 24 -24 18z"/>
<path d="M1850 3698 c0 -47 12 -68 36 -68 22 0 24 4 24 45 0 43 -1 45 -30 45
-24 0 -30 -4 -30 -22z"/>
<path d="M1430 3621 c0 -6 5 -13 10 -16 6 -3 10 1 10 9 0 9 -4 16 -10 16 -5 0
-10 -4 -10 -9z"/>
<path d="M4993 3508 c-196 -168 -373 -345 -373 -371 0 -6 17 -7 43 -4 28 4 36
3 22 -3 -11 -5 -30 -9 -42 -9 -28 -1 -30 -17 -3 -26 17 -5 48 9 85 38 6 4 97
58 203 119 l192 112 -1 123 c0 68 -3 123 -5 123 -2 0 -56 -46 -121 -102z"/>
<path d="M1590 3596 c0 -2 7 -23 15 -46 8 -23 15 -63 15 -89 1 -42 2 -44 15
-26 8 11 22 28 31 37 16 16 14 21 -25 73 -37 49 -51 63 -51 51z"/>
<path d="M55 3545 c4 -11 27 -72 50 -135 68 -186 76 -200 141 -250 32 -25 137
-105 232 -178 96 -74 176 -131 179 -129 9 10 -20 92 -45 126 -90 121 -198 242
-317 354 -206 196 -250 234 -240 212z"/>
<path d="M951 3553 c65 -163 118 -258 135 -241 3 4 -13 88 -26 138 -8 29 -23
47 -61 75 -28 20 -50 32 -48 28z"/>
<path d="M1952 3522 c-13 -2 -22 -9 -19 -16 3 -6 10 -38 17 -71 l13 -60 9 40
c5 22 8 56 6 75 -3 30 -6 35 -26 32z"/>
<path d="M1310 3420 c0 -58 25 -226 34 -232 20 -13 217 -91 221 -87 5 6 -25
181 -35 198 -4 8 -55 42 -114 77 -89 53 -106 60 -106 44z"/>
<path d="M1765 3320 c3 -5 14 -10 23 -10 15 0 15 2 2 10 -20 13 -33 13 -25 0z"/>
<path d="M850 3217 c40 -54 74 -97 76 -97 17 0 -73 167 -93 173 -10 2 -27 8
-37 12 -11 5 12 -32 54 -88z"/>
<path d="M1675 3187 c16 -134 13 -127 54 -127 48 0 67 21 76 83 6 36 4 47 -6
47 -8 0 -40 11 -72 24 l-59 24 7 -51z"/>
<path d="M50 3082 c0 -21 -7 -64 -15 -96 -9 -33 -13 -61 -11 -63 7 -7 190 -72
193 -69 6 5 -24 81 -60 151 -29 58 -79 115 -102 115 -3 0 -5 -17 -5 -38z"/>
<path d="M1328 3032 c-3 -21 3 -37 18 -56 20 -23 31 -26 83 -26 60 0 111 13
111 27 0 5 -40 23 -88 41 -128 49 -119 48 -124 14z"/>
<path d="M790 3047 c0 -2 14 -16 32 -33 31 -29 31 -29 12 -2 -16 23 -44 45
-44 35z"/>
<path d="M2826 3004 c-8 -61 -1 -68 14 -14 7 26 8 46 2 52 -6 6 -12 -9 -16
-38z"/>
<path d="M2702 2995 c0 -16 2 -22 5 -12 2 9 2 23 0 30 -3 6 -5 -1 -5 -18z"/>
<path d="M5080 2970 c-13 -9 -13 -10 0 -10 8 0 22 5 30 10 13 9 13 10 0 10 -8
0 -22 -5 -30 -10z"/>
<path d="M5030 2936 c-69 -21 -137 -49 -295 -121 -33 -15 -170 -78 -305 -140
-311 -143 -590 -277 -589 -284 1 -4 25 -28 55 -55 l53 -49 208 73 c304 105
291 100 289 118 -1 22 85 68 339 178 110 48 213 99 229 113 16 14 26 20 22 14
-10 -18 7 -16 49 4 l35 17 -1 78 c-1 43 -4 78 -8 77 -3 -1 -40 -11 -81 -23z
m70 -56 c-6 -11 -13 -20 -16 -20 -2 0 0 9 6 20 6 11 13 20 16 20 2 0 0 -9 -6
-20z m-30 -49 c-5 -11 -15 -23 -21 -27 -6 -3 -3 5 6 20 20 30 30 35 15 7z"/>
<path d="M331 2868 c5 -28 12 -55 17 -60 5 -5 35 -8 67 -6 l59 3 -59 45 c-33
25 -67 50 -76 57 -14 11 -15 7 -8 -39z"/>
<path d="M5050 2758 c-36 -16 -78 -41 -95 -56 -22 -20 -25 -21 -10 -4 18 21
15 21 -56 -9 -133 -56 -270 -119 -353 -162 -118 -60 -71 -59 121 2 87 28 225
71 308 96 82 25 151 47 153 49 2 2 2 28 0 58 l-3 55 -65 -29z m-140 -93 c-7
-9 -32 -30 -54 -47 -35 -26 -34 -24 9 15 52 48 67 58 45 32z"/>
<path d="M853 2694 c-3 -10 4 -26 21 -42 25 -25 27 -26 43 -9 17 17 16 19 -12
42 -36 29 -44 30 -52 9z"/>
<path d="M450 2653 c0 0 20 -13 43 -27 42 -24 46 -24 101 -12 82 19 90 33 25
40 -45 5 -169 5 -169 -1z"/>
<path d="M4923 2596 c-90 -29 -166 -56 -170 -61 -5 -4 -1 -6 7 -3 8 3 93 22
188 44 143 32 172 41 172 56 0 25 -14 23 -197 -36z"/>
<path d="M78 2613 c-43 -7 -33 -23 13 -23 36 0 40 2 29 15 -7 8 -13 14 -14 14
0 -1 -13 -4 -28 -6z"/>
<path d="M4912 2555 c-101 -24 -191 -47 -200 -51 -9 -4 -22 -6 -28 -5 -22 3
-189 -40 -294 -75 -249 -85 -420 -147 -420 -154 0 -4 18 -24 40 -44 22 -20 40
-39 40 -43 0 -4 -22 14 -48 40 l-48 47 -67 -27 c-60 -24 -67 -29 -67 -54 0
-26 -38 -69 -72 -82 -16 -6 19 -36 41 -37 12 0 231 59 280 76 11 3 11 7 0 22
-12 16 -12 16 5 1 16 -15 28 -13 154 18 l137 33 70 68 70 67 -60 -62 c-33 -35
-53 -63 -45 -63 8 1 53 9 100 18 59 13 85 22 85 32 0 25 72 56 265 116 167 52
189 61 228 98 33 31 42 47 42 73 0 20 -5 33 -12 32 -7 -1 -95 -20 -196 -44z
m-232 -69 c0 -2 -8 -10 -17 -17 -16 -13 -17 -12 -4 4 13 16 21 21 21 13z m-45
-36 c-3 -5 -20 -19 -38 -30 -32 -22 -32 -22 3 9 37 32 45 37 35 21z m-75 -53
c0 -2 -12 -14 -27 -28 l-28 -24 24 28 c23 25 31 32 31 24z"/>
<path d="M2160 2563 c-73 -12 -130 -42 -130 -69 0 -9 14 -8 55 7 59 21 158 25
201 9 43 -17 39 -4 -8 23 -48 27 -81 36 -118 30z"/>
<path d="M723 2538 c-18 -11 -33 -23 -33 -26 1 -4 28 -24 62 -45 47 -30 63
-35 74 -26 23 19 16 43 -24 82 -21 20 -40 37 -42 36 -3 0 -20 -10 -37 -21z"/>
<path d="M5090 2495 c-27 -29 -25 -36 8 -24 13 5 22 17 22 29 0 25 -2 25 -30
-5z"/>
<path d="M410 2471 c-34 -6 -32 -7 60 -43 52 -20 112 -43 133 -52 20 -9 37
-15 37 -13 0 6 -185 117 -191 116 -2 -1 -20 -4 -39 -8z"/>
<path d="M5065 2446 c-22 -7 -68 -32 -101 -57 -34 -24 -70 -50 -80 -57 -18
-12 -18 -12 1 -8 11 3 61 12 110 21 132 24 125 20 125 71 0 49 1 48 -55 30z"/>
<path d="M2 2388 l3 -62 75 -18 c71 -16 214 -17 260 -1 11 4 -316 143 -337
143 -2 0 -3 -28 -1 -62z"/>
<path d="M4793 2362 c-182 -61 -224 -82 -162 -82 18 0 50 4 69 9 19 5 56 12
82 16 33 4 72 22 130 60 46 30 76 55 68 54 -8 0 -93 -26 -187 -57z"/>
<path d="M3756 2346 l-68 -41 53 -3 c62 -4 78 -14 59 -37 -10 -12 -10 -19 -2
-27 8 -8 21 -7 49 5 21 9 51 21 67 27 l29 11 -34 35 c-19 20 -45 44 -59 54
-25 17 -26 17 -94 -24z"/>
<path d="M1610 2367 c0 -10 31 -26 96 -47 52 -18 97 -30 100 -28 2 3 -35 22
-82 42 -118 51 -114 50 -114 33z"/>
<path d="M5095 2345 c-5 -2 -55 -11 -110 -21 -125 -22 -113 -28 24 -11 64 8
106 17 109 25 4 12 -3 14 -23 7z"/>
<path d="M4935 2291 l-150 -17 -125 -78 c-134 -84 -250 -165 -250 -173 0 -3
24 -2 53 2 93 11 121 14 182 19 33 3 101 8 150 12 80 6 95 10 130 37 75 58
195 180 195 199 0 21 13 21 -185 -1z"/>
<path d="M3766 2275 c4 -8 10 -15 14 -15 4 0 10 7 14 15 4 10 -1 15 -14 15
-13 0 -18 -5 -14 -15z"/>
<path d="M4660 2263 c-14 -3 -86 -18 -160 -34 -106 -23 -139 -34 -153 -52
l-18 -22 11 23 c10 21 10 23 -7 19 -10 -3 -47 -13 -83 -22 -36 -10 -80 -22
-99 -27 l-33 -10 68 -69 c57 -57 73 -69 94 -65 14 3 43 8 65 11 22 3 47 11 56
18 55 41 214 147 283 188 l81 49 -40 -1 c-22 -1 -51 -4 -65 -6z m-343 -175
c-3 -8 -6 -5 -6 6 -1 11 2 17 5 13 3 -3 4 -12 1 -19z"/>
<path d="M5055 2192 c-33 -31 -80 -73 -104 -93 l-45 -36 65 4 c35 2 83 6 107
9 l42 5 0 85 c0 46 -1 84 -2 84 -2 0 -30 -26 -63 -58z"/>
<path d="M3694 2181 c-81 -60 -141 -117 -133 -126 3 -2 37 8 75 23 60 23 69
30 66 50 -3 22 32 65 73 88 11 6 15 13 8 17 -5 4 -46 -20 -89 -52z"/>
<path d="M3753 2180 c-23 -13 -33 -27 -33 -44 0 -19 4 -23 20 -19 27 7 70 49
70 68 0 20 -18 19 -57 -5z"/>
<path d="M0 2140 c0 -23 10 -24 65 -8 38 11 39 12 15 19 -50 14 -80 10 -80
-11z"/>
<path d="M3940 2090 c-74 -22 -136 -40 -138 -40 -2 0 -2 -6 1 -12 8 -23 -14
-49 -56 -69 l-42 -20 109 6 c128 8 405 41 414 49 11 11 -111 126 -133 126 -11
-1 -81 -19 -155 -40z"/>
<path d="M3628 2061 c-37 -14 -68 -31 -68 -38 0 -6 15 -23 32 -37 l33 -25 12
22 c6 13 35 34 65 47 29 13 55 26 57 27 8 6 -34 32 -49 32 -8 -1 -45 -13 -82
-28z"/>
<path d="M290 2055 c-225 -49 -228 -45 64 -78 257 -29 258 -29 322 -11 35 11
64 21 64 24 0 5 -170 48 -330 85 -8 2 -62 -7 -120 -20z"/>
<path d="M4913 2043 c-34 -3 -64 -21 -165 -96 -67 -51 -122 -99 -120 -106 1
-7 -2 -9 -9 -6 -10 7 -69 -41 -69 -55 0 -7 61 -7 384 0 71 1 142 7 158 12 l28
10 0 124 0 124 -82 -2 c-46 -1 -102 -3 -125 -5z"/>
<path d="M3714 2016 c-58 -27 -69 -39 -51 -54 16 -13 121 38 125 61 5 23 -14
21 -74 -7z"/>
<path d="M4745 2029 c-44 -4 -144 -13 -222 -20 -79 -7 -143 -15 -143 -19 0 -3
6 -12 13 -20 6 -8 2 -6 -9 3 -22 18 -23 18 -47 -15 -38 -51 -47 -73 -47 -118
0 -52 19 -60 144 -60 l92 0 34 35 c19 19 29 35 24 35 -6 0 -19 7 -30 15 -17
14 -16 15 13 1 l31 -16 121 91 c112 83 133 101 114 98 -5 -1 -44 -5 -88 -10z
m-314 -86 c13 -16 12 -17 -3 -4 -17 13 -22 21 -14 21 2 0 10 -8 17 -17z"/>
<path d="M3480 2000 c-41 -22 -80 -56 -80 -72 0 -7 18 -8 53 -4 28 3 82 8 119
12 l67 6 -37 25 c-20 14 -41 32 -45 39 -11 19 -35 17 -77 -6z"/>
<path d="M4287 1983 c-13 -3 -16 -10 -11 -26 l7 -22 -19 22 -19 23 -155 -20
c-85 -11 -204 -23 -263 -27 -59 -3 -104 -9 -100 -13 4 -4 67 -32 138 -63 123
-52 136 -56 239 -62 104 -6 109 -6 134 17 26 22 26 22 8 1 l-19 -23 30 0 c27
0 29 2 25 30 -2 16 -9 27 -14 24 -6 -4 -5 2 1 14 6 11 11 32 11 46 0 14 4 25
8 24 5 -2 21 12 36 30 l28 32 -24 -1 c-12 -1 -31 -3 -41 -6z"/>
<path d="M952 1921 c-8 -5 19 -12 69 -19 45 -7 84 -10 87 -8 6 6 -97 36 -122
36 -12 0 -27 -4 -34 -9z"/>
<path d="M3577 1890 c-26 -16 -47 -36 -47 -44 0 -27 47 -28 99 -1 56 28 64 36
55 59 -10 25 -55 19 -107 -14z"/>
<path d="M3455 1901 l-40 -6 42 -29 42 -28 34 36 34 36 -36 -1 c-20 -1 -54 -5
-76 -8z"/>
<path d="M3706 1896 c6 -15 -15 -40 -56 -67 -23 -15 -17 -16 115 -18 77 -1
151 -5 165 -8 50 -11 4 14 -106 61 -62 25 -114 46 -118 46 -3 0 -3 -6 0 -14z"/>
<path d="M3340 1881 c0 -5 13 -11 29 -14 16 -3 42 -9 57 -12 l29 -7 -25 21
c-25 20 -90 29 -90 12z"/>
<path d="M0 1825 c0 -33 0 -34 57 -41 47 -6 70 -3 125 16 38 13 67 25 65 26
-1 2 -45 8 -97 14 -52 6 -107 12 -122 15 -26 4 -28 2 -28 -30z"/>
<path d="M515 1780 l-50 -18 184 -1 c101 -1 182 1 180 3 -2 2 -56 9 -119 16
-63 6 -122 13 -130 15 -8 2 -37 -5 -65 -15z"/>
<path d="M3440 1781 c0 -12 67 -34 80 -26 5 3 10 13 10 21 0 10 -12 14 -45 14
-25 0 -45 -4 -45 -9z"/>
<path d="M3566 1782 c-13 -21 79 -86 137 -96 34 -6 37 -5 37 16 0 19 -12 28
-68 50 -99 40 -100 40 -106 30z"/>
<path d="M3741 1759 c30 -30 208 -119 237 -119 19 0 72 58 72 78 0 39 -42 59
-127 61 -43 0 -109 4 -147 7 l-70 7 35 -34z"/>
<path d="M4050 1751 c16 -30 12 -47 -16 -80 -14 -17 -24 -31 -22 -32 1 0 12
-2 23 -4 11 -2 104 -18 208 -37 l187 -34 0 28 c0 20 -14 42 -54 80 -29 29 -57
60 -62 70 -6 11 -25 17 -61 19 -49 3 -54 0 -123 -55 -39 -32 -73 -56 -75 -54
-3 2 25 26 60 53 36 27 65 52 65 57 0 4 -32 8 -70 8 -67 0 -70 -1 -60 -19z"/>
<path d="M3540 1751 c0 -6 9 -15 20 -21 13 -7 20 -7 20 -1 0 6 -9 15 -20 21
-13 7 -20 7 -20 1z"/>
<path d="M4320 1752 c0 -4 26 -34 59 -66 56 -56 59 -57 64 -34 4 14 17 40 31
60 l24 35 -61 7 c-80 8 -117 8 -117 -2z"/>
<path d="M4481 1705 c-26 -41 -48 -121 -37 -132 3 -3 10 -2 16 2 8 5 8 11 -1
21 -13 16 2 19 18 3 8 -8 38 -1 109 24 55 20 111 39 126 42 21 5 26 12 25 32
-2 22 4 28 38 38 36 12 25 13 -113 14 l-152 1 -29 -45z"/>
<path d="M5035 1739 c-93 -8 -127 -17 -118 -32 3 -6 1 -7 -6 -3 -6 4 -35 0
-64 -10 l-52 -17 36 -12 c79 -28 271 -67 280 -58 6 6 9 39 7 74 l-3 64 -80 -6z
m-80 -49 c3 -6 -1 -7 -9 -4 -18 7 -21 14 -7 14 6 0 13 -4 16 -10z m50 -28 c-3
-3 -11 0 -18 7 -9 10 -8 11 6 5 10 -3 15 -9 12 -12z m95 -48 c0 -2 -9 0 -20 6
-11 6 -20 13 -20 16 0 2 9 0 20 -6 11 -6 20 -13 20 -16z"/>
<path d="M4816 1729 c-65 -9 -91 -24 -62 -35 16 -6 126 19 156 37 19 11 -11
10 -94 -2z"/>
<path d="M3766 1695 c-7 -18 1 -21 69 -29 l50 -6 -54 25 c-63 30 -57 29 -65
10z"/>
<path d="M3510 1645 c36 -19 69 -34 73 -35 4 0 -5 16 -20 35 -25 31 -33 35
-73 35 l-45 -1 65 -34z"/>
<path d="M3578 1654 c19 -35 106 -104 117 -92 1 2 5 19 9 38 7 43 -12 58 -86
67 -47 6 -50 5 -40 -13z"/>
<path d="M4650 1629 c-63 -21 -121 -41 -129 -44 -12 -5 -11 -9 5 -24 13 -13
59 -26 146 -40 110 -19 146 -21 287 -15 l161 7 0 33 c0 37 5 34 -125 63 -49
11 -119 29 -155 40 -36 12 -67 20 -70 20 -3 0 -57 -18 -120 -40z"/>
<path d="M3740 1635 c0 -8 91 -67 97 -62 9 10 -8 27 -47 47 -40 20 -50 23 -50
15z"/>
<path d="M3853 1612 c10 -10 17 -24 17 -30 0 -17 8 -15 43 10 l31 22 -24 7
c-14 4 -38 7 -54 8 -28 1 -28 0 -13 -17z"/>
<path d="M22 1610 c-12 -5 -22 -16 -22 -23 0 -21 392 -35 444 -16 20 7 36 16
36 19 0 4 -69 10 -152 13 -84 4 -182 9 -218 12 -36 3 -75 1 -88 -5z"/>
<path d="M3725 1588 c-6 -24 -3 -35 11 -45 22 -16 44 -16 66 1 16 12 14 16
-26 44 l-44 32 -7 -32z"/>
<path d="M3913 1579 c-24 -17 -43 -34 -43 -38 0 -4 14 -17 31 -30 l30 -23 47
24 c50 24 65 55 39 77 -12 9 -19 5 -36 -21 -11 -18 -21 -28 -21 -23 1 6 7 19
15 29 35 46 -1 48 -62 5z"/>
<path d="M791 1584 c-18 -8 -31 -17 -29 -20 8 -7 135 13 155 25 29 17 -86 12
-126 -5z"/>
<path d="M4040 1580 c15 -28 -1 -54 -51 -78 l-41 -21 69 -20 c52 -16 77 -18
103 -12 19 5 59 12 88 16 46 6 161 59 162 76 0 4 -310 60 -333 59 -4 0 -3 -9
3 -20z"/>
<path d="M4475 1560 c3 -5 13 -10 21 -10 8 0 12 5 9 10 -3 6 -13 10 -21 10 -8
0 -12 -4 -9 -10z"/>
<path d="M3595 1506 c63 -55 82 -63 99 -40 20 27 -3 51 -57 59 -23 4 -51 9
-62 11 -14 3 -7 -6 20 -30z"/>
<path d="M4358 1515 c-26 -14 -49 -28 -52 -33 -6 -9 116 -3 125 7 8 8 -7 51
-18 51 -4 -1 -29 -12 -55 -25z"/>
<path d="M3840 1521 c0 -5 7 -12 16 -15 24 -9 28 -7 14 9 -14 17 -30 20 -30 6z"/>
<path d="M4444 1514 c3 -9 6 -19 6 -22 0 -4 29 -5 65 -4 36 2 65 7 65 12 0 4
-28 13 -63 19 -81 14 -80 14 -73 -5z"/>
<path d="M5005 1490 c-117 -5 -113 -9 28 -31 43 -6 80 -9 83 -6 3 3 4 14 2 24
-3 17 -12 18 -113 13z"/>
<path d="M3750 1477 c0 -14 20 -37 32 -37 4 0 8 11 8 25 0 18 -5 25 -20 25
-11 0 -20 -6 -20 -13z"/>
<path d="M4528 1473 c-79 -4 -79 -5 -43 -95 l25 -63 98 -28 c157 -45 142 -45
131 3 -5 23 -17 56 -25 72 -17 32 -101 119 -112 116 -4 -1 -37 -3 -74 -5z"/>
<path d="M4669 1434 c44 -47 80 -114 81 -149 0 -11 4 -26 9 -33 7 -11 326
-112 353 -112 5 0 7 62 6 137 l-3 137 -180 32 c-99 18 -209 33 -244 33 l-64 1
42 -46z m431 -39 c0 -2 -13 -11 -30 -20 -38 -19 -40 -11 -2 9 31 17 32 18 32
11z m-70 -39 c0 -2 -7 -7 -16 -10 -8 -3 -12 -2 -9 4 6 10 25 14 25 6z m-41
-20 c-10 -9 -69 -36 -69 -32 0 7 52 35 64 36 5 0 7 -2 5 -4z"/>
<path d="M3800 1460 c0 -5 7 -10 15 -10 8 0 15 5 15 10 0 6 -7 10 -15 10 -8 0
-15 -4 -15 -10z"/>
<path d="M4332 1460 c-48 -5 -70 -13 -88 -32 l-25 -25 133 -40 c73 -22 134
-37 135 -34 2 3 -8 35 -21 71 -27 73 -26 73 -134 60z"/>
<path d="M3714 1446 c-4 -11 -2 -21 7 -27 18 -11 24 5 10 28 -9 17 -10 17 -17
-1z"/>
<path d="M3910 1445 c7 -9 15 -13 17 -11 7 7 -7 26 -19 26 -6 0 -6 -6 2 -15z"/>
<path d="M3823 1440 c-28 -11 -29 -21 -5 -48 16 -20 20 -20 50 -7 38 17 40 28
10 49 -25 18 -25 18 -55 6z"/>
<path d="M4170 1441 c-47 -6 -46 -14 6 -25 23 -5 34 -2 49 14 20 22 22 21 -55
11z"/>
<path d="M3960 1420 c0 -23 4 -24 32 -9 17 9 18 13 7 20 -23 15 -39 10 -39
-11z"/>
<path d="M3941 1414 c0 -11 3 -14 6 -6 3 7 2 16 -1 19 -3 4 -6 -2 -5 -13z"/>
<path d="M4013 1400 c-40 -18 -83 -62 -83 -85 0 -11 189 -95 213 -95 4 0 7 13
7 28 0 16 7 51 15 77 8 27 13 51 11 53 -2 2 -31 11 -64 21 -58 18 -62 18 -99
1z"/>
<path d="M7 1404 c-9 -10 -9 -54 1 -54 4 1 27 12 52 25 l45 24 -32 1 c-17 0
-38 2 -45 5 -8 3 -17 2 -21 -1z"/>
<path d="M3780 1392 c6 -13 14 -21 18 -18 3 4 -2 14 -12 24 -18 16 -18 16 -6
-6z"/>
<path d="M320 1360 c-82 -43 -82 -45 5 -29 48 9 155 52 155 62 0 1 -19 3 -43
4 -31 1 -61 -9 -117 -37z"/>
<path d="M3886 1360 c-21 -10 -33 -20 -27 -24 12 -8 42 6 61 28 15 19 15 19
-34 -4z"/>
<path d="M4183 1338 c-16 -44 -20 -115 -8 -127 6 -6 57 -29 115 -53 101 -42
108 -43 186 -38 l82 5 -19 74 c-10 41 -21 76 -23 78 -5 6 -298 93 -311 93 -6
0 -16 -15 -22 -32z"/>
<path d="M3900 1330 c-8 -5 -11 -12 -7 -16 4 -4 13 -2 19 4 15 15 7 24 -12 12z"/>
<path d="M3754 1306 c-18 -14 -18 -15 6 -24 32 -12 43 -6 30 19 -13 23 -11 23
-36 5z"/>
<path d="M3860 1286 c0 -14 43 -75 57 -80 22 -9 25 -3 14 25 -8 21 -71 69 -71
55z"/>
<path d="M4533 1267 c6 -16 19 -68 31 -119 6 -28 6 -28 96 -28 l90 0 0 45 0
44 -102 32 c-57 17 -107 34 -112 37 -5 3 -7 -2 -3 -11z"/>
<path d="M955 1253 c-27 -4 -179 -92 -172 -100 2 -1 34 4 72 12 57 12 75 21
109 55 22 22 36 39 31 39 -6 -1 -23 -4 -40 -6z"/>
<path d="M3850 1251 c0 -5 5 -13 10 -16 6 -3 10 -2 10 4 0 5 -4 13 -10 16 -5
3 -10 2 -10 -4z"/>
<path d="M3956 1215 c4 -8 11 -15 16 -15 6 0 5 6 -2 15 -7 8 -14 15 -16 15 -2
0 -1 -7 2 -15z"/>
<path d="M4015 1210 c4 -12 2 -26 -3 -33 -7 -9 7 -20 54 -43 l64 -30 10 35 c5
19 8 35 7 36 -10 6 -129 55 -133 55 -3 0 -2 -9 1 -20z"/>
<path d="M4760 1166 c0 -27 5 -43 13 -44 6 0 77 -3 157 -6 164 -6 166 -9 -52
57 l-118 35 0 -42z"/>
<path d="M445 1181 c-55 -9 -107 -21 -115 -25 -56 -34 -241 -160 -250 -172
-10 -10 0 -10 41 5 30 9 101 31 159 47 85 23 122 40 195 88 50 32 94 63 100
67 12 12 -11 10 -130 -10z"/>
<path d="M4153 1133 c-14 -45 -4 -56 42 -48 17 3 47 8 68 11 20 4 37 9 37 13
0 3 -28 17 -62 31 -35 14 -65 26 -68 28 -3 1 -10 -15 -17 -35z"/>
<path d="M4450 1095 c0 -5 50 -27 88 -39 19 -6 22 -3 22 18 0 25 -3 26 -55 26
-30 0 -55 -2 -55 -5z"/>
<path d="M4570 1086 c0 -32 16 -49 68 -72 31 -14 63 -26 72 -27 8 -2 29 -10
45 -19 30 -16 155 -68 163 -68 2 0 -19 25 -46 56 -28 31 -61 76 -74 100 -12
24 -27 43 -33 41 -5 -2 -15 -26 -21 -53 l-12 -49 5 53 6 52 -87 0 c-68 0 -86
-3 -86 -14z"/>
<path d="M4790 1090 c0 -16 80 -126 120 -165 28 -27 67 -50 123 -71 l82 -31 3
130 c1 71 1 131 0 132 -8 7 -328 12 -328 5z"/>
<path d="M4263 1077 c-29 -5 -53 -13 -53 -16 1 -3 24 -17 53 -31 28 -14 109
-56 180 -93 71 -38 131 -66 134 -63 3 3 2 33 -3 68 l-9 62 -100 42 c-106 45
-120 47 -202 31z"/>
<path d="M1206 1036 c-28 -38 -36 -89 -12 -80 12 5 56 90 56 108 0 16 -20 2
-44 -28z"/>
<path d="M3915 981 c8 -15 65 -44 72 -37 3 2 -14 14 -37 26 -23 12 -39 17 -35
11z"/>
<path d="M4584 968 c3 -13 6 -41 6 -64 0 -36 4 -42 34 -56 33 -16 35 -16 55 6
12 13 24 38 27 57 5 33 4 34 -50 57 -31 12 -61 22 -67 22 -7 0 -9 -9 -5 -22z"/>
<path d="M4000 931 c0 -6 9 -15 20 -21 13 -7 20 -7 20 -1 0 6 -9 15 -20 21
-13 7 -20 7 -20 1z"/>
<path d="M4716 906 c-4 -18 -15 -41 -26 -51 -11 -10 -20 -22 -20 -26 0 -4 26
-13 58 -19 32 -7 111 -40 180 -76 97 -51 131 -64 167 -64 40 0 45 3 45 22 0
12 -10 33 -22 47 l-23 26 23 -19 c22 -19 22 -19 22 8 0 21 -7 30 -35 42 -49
20 -61 18 -39 -8 10 -13 3 -9 -16 9 -29 26 -124 71 -287 133 -18 8 -22 5 -27
-24z"/>
<path d="M4060 898 c0 -7 27 -31 61 -52 45 -29 63 -36 72 -27 14 14 0 30 -33
36 -12 2 -30 11 -39 18 -30 27 -61 39 -61 25z m121 -65 c13 -16 12 -17 -3 -4
-10 7 -18 15 -18 17 0 8 8 3 21 -13z"/>
<path d="M3392 778 c3 -70 6 -83 21 -86 13 -3 17 4 17 32 0 19 7 41 15 50 22
22 18 40 -15 64 -16 12 -32 22 -35 22 -3 0 -5 -37 -3 -82z"/>
<path d="M3750 846 c0 -2 7 -9 15 -16 9 -7 15 -8 15 -2 0 5 -7 12 -15 16 -8 3
-15 4 -15 2z"/>
<path d="M838 810 c-53 -23 -57 -30 -17 -30 24 0 38 6 47 21 18 28 14 29 -30
9z"/>
<path d="M4220 820 c0 -4 8 -14 18 -23 19 -17 52 -23 52 -9 -1 9 -70 42 -70
32z"/>
<path d="M340 804 c-72 -12 -90 -19 -118 -47 -42 -40 -76 -86 -69 -94 3 -3 43
17 89 45 46 27 107 62 136 76 28 14 52 29 52 31 0 3 -1 5 -2 4 -2 -1 -41 -7
-88 -15z"/>
<path d="M4200 795 c0 -2 10 -10 23 -16 20 -11 21 -11 8 4 -13 16 -31 23 -31
12z"/>
<path d="M3456 745 c-15 -41 0 -85 30 -85 9 0 9 10 2 43 -13 50 -23 64 -32 42z"/>
<path d="M3890 753 c0 -4 16 -18 36 -31 20 -13 35 -19 32 -12 -4 14 -68 55
-68 43z"/>
<path d="M3518 724 c6 -33 22 -41 22 -11 0 14 -6 27 -13 30 -10 4 -13 -2 -9
-19z"/>
<path d="M3560 674 l1 -49 19 24 c25 29 25 34 0 56 -20 18 -20 17 -20 -31z"/>
<path d="M4477 689 c7 -7 15 -10 18 -7 3 3 -2 9 -12 12 -14 6 -15 5 -6 -5z"/>
<path d="M1059 666 c-28 -19 -38 -35 -46 -73 -6 -26 -10 -49 -9 -51 6 -6 99
83 106 102 8 21 3 46 -9 46 -3 0 -22 -11 -42 -24z"/>
<path d="M4054 635 c27 -19 57 -35 65 -35 9 0 -8 16 -36 35 -29 19 -58 35 -65
35 -7 0 9 -16 36 -35z"/>
<path d="M3606 635 c-16 -24 -16 -25 25 -45 l41 -21 -7 33 c-8 34 -22 58 -35
58 -4 0 -15 -11 -24 -25z"/>
<path d="M3702 635 c15 -16 30 -26 33 -23 4 3 -9 16 -27 28 l-33 23 27 -28z"/>
<path d="M4560 630 c41 -35 50 -37 50 -11 0 12 -11 23 -31 30 -51 18 -56 12
-19 -19z"/>
<path d="M5094 635 c11 -8 22 -12 25 -9 6 6 -19 24 -34 24 -5 -1 -1 -7 9 -15z"/>
<path d="M4620 608 c0 -16 17 -36 55 -65 30 -24 55 -41 55 -39 0 3 -20 28 -45
57 -25 29 -45 56 -45 61 0 4 -4 8 -10 8 -5 0 -10 -10 -10 -22z"/>
<path d="M4692 568 c106 -128 101 -125 213 -132 55 -4 108 -10 118 -12 49 -15
1 19 -131 92 -219 121 -269 134 -200 52z"/>
<path d="M3694 585 c9 -38 20 -49 40 -42 23 9 19 19 -16 47 l-31 24 7 -29z"/>
<path d="M4145 570 c3 -5 11 -10 16 -10 6 0 7 5 4 10 -3 6 -11 10 -16 10 -6 0
-7 -4 -4 -10z"/>
<path d="M4192 550 c17 -29 113 -90 141 -90 15 0 0 14 -53 48 -111 71 -103 67
-88 42z"/>
<path d="M3806 501 c-3 -5 9 -20 27 -33 57 -43 63 -43 29 0 -34 42 -46 50 -56
33z"/>
<path d="M3897 465 c36 -45 48 -45 22 0 -12 19 -27 35 -35 35 -10 0 -6 -11 13
-35z"/>
<path d="M3954 438 c14 -24 30 -43 36 -42 5 1 17 2 25 3 8 0 15 5 15 11 0 9
-82 70 -95 70 -3 0 5 -19 19 -42z"/>
<path d="M1247 453 c-10 -9 -9 -23 2 -23 5 0 11 7 15 15 5 15 -5 20 -17 8z"/>
<path d="M3520 411 c0 -6 5 -13 10 -16 6 -3 10 1 10 9 0 9 -4 16 -10 16 -5 0
-10 -4 -10 -9z"/>
<path d="M60 387 l-55 -22 -3 -68 c-2 -52 0 -69 12 -73 24 -9 54 19 102 96 34
56 42 75 32 81 -19 12 -27 11 -88 -14z"/>
<path d="M4865 400 c3 -5 12 -10 20 -10 8 0 17 5 20 10 4 6 -5 10 -20 10 -15
0 -24 -4 -20 -10z"/>
<path d="M3580 382 c0 -18 47 -52 63 -46 24 9 21 17 -12 37 -31 18 -51 22 -51
9z"/>
<path d="M4057 384 c-19 -20 4 -38 120 -98 70 -36 128 -64 130 -62 3 3 -213
152 -238 164 -3 1 -8 -1 -12 -4z"/>
<path d="M4550 370 c45 -25 62 -25 30 0 -14 11 -34 19 -45 19 -15 0 -11 -5 15
-19z"/>
<path d="M5085 380 c27 -12 35 -12 35 0 0 6 -12 10 -27 9 -25 0 -26 -1 -8 -9z"/>
<path d="M4020 370 c0 -5 5 -10 10 -10 6 0 10 5 10 10 0 6 -4 10 -10 10 -5 0
-10 -4 -10 -10z"/>
<path d="M4440 366 c155 -142 147 -137 177 -121 15 8 34 15 41 15 31 0 2 24
-54 45 -33 12 -83 34 -111 49 -58 29 -75 33 -53 12z"/>
<path d="M3699 309 c-9 -5 -9 -9 -2 -9 6 0 18 -3 27 -6 9 -3 16 -2 16 4 0 15
-25 21 -41 11z"/>
<path d="M4076 279 c22 -17 66 -49 99 -71 33 -23 81 -61 107 -86 32 -30 50
-42 60 -36 7 5 33 11 58 14 l45 5 -30 16 c-210 111 -363 189 -370 189 -4 0 10
-14 31 -31z"/>
<path d="M3081 294 c-2 -22 30 -114 39 -114 6 0 10 4 10 9 0 13 -49 117 -49
105z"/>
<path d="M3680 259 c0 -20 35 -43 50 -34 22 14 10 43 -20 47 -24 4 -30 1 -30
-13z"/>
<path d="M3764 254 c-3 -11 -4 -23 -2 -29 2 -10 69 -37 75 -31 6 6 -42 69 -55
74 -7 2 -16 -4 -18 -14z"/>
<path d="M4688 263 c7 -3 16 -2 19 1 4 3 -2 6 -13 5 -11 0 -14 -3 -6 -6z"/>
<path d="M2830 237 c0 -12 48 -209 52 -213 3 -2 21 8 40 23 34 28 34 28 23 74
-15 56 -22 69 -40 69 -7 0 -27 12 -44 26 -17 14 -31 24 -31 21z"/>
<path d="M870 177 c-25 -23 -79 -72 -120 -110 l-74 -67 72 0 72 0 23 38 c29
45 88 182 79 182 -4 0 -27 -20 -52 -43z"/>
<path d="M3904 152 c8 -16 23 -35 32 -43 14 -11 12 -4 -6 29 -26 46 -49 59
-26 14z"/>
<path d="M3132 138 c-13 -13 -4 -38 14 -38 15 0 19 35 6 44 -5 3 -14 0 -20 -6z"/>
<path d="M3960 124 c0 -25 49 -78 92 -100 69 -35 97 -27 38 10 -25 16 -64 44
-87 63 -24 19 -43 31 -43 27z"/>
<path d="M313 77 c-46 -23 -83 -44 -83 -47 0 -8 63 -30 86 -30 10 0 28 15 40
33 11 17 29 44 38 60 10 15 14 27 10 26 -5 0 -46 -19 -91 -42z"/>
<path d="M1150 35 l-34 -35 52 0 52 0 -12 28 c-19 43 -22 44 -58 7z"/>
<path d="M2940 15 c-11 -13 -8 -15 13 -15 19 0 25 4 21 15 -8 19 -18 19 -34 0z"/>
</g>
</svg>
